<svg width="138" height="32" viewBox="0 0 138 32" fill="none" xmlns="http://www.w3.org/2000/svg">
<path d="M135.661 5.69531C135.603 5.30469 135.302 5.06787 134.89 5.06543C134.34 5.06787 133.977 5.48779 133.977 6.23242C133.977 6.99414 134.345 7.39697 134.885 7.39941C135.288 7.39697 135.59 7.17725 135.661 6.79395L136.403 6.79883C136.323 7.45312 135.773 8.04883 134.875 8.04883C133.93 8.04883 133.229 7.38232 133.229 6.23242C133.229 5.07764 133.942 4.41602 134.875 4.41602C135.69 4.41602 136.306 4.88232 136.403 5.69531H135.661Z" fill="black"/>
<circle cx="135" cy="6" r="2.75" stroke="black" stroke-width="0.5"/>
<path d="M8.54492 7.32422H12.1826V19.6533C12.1826 23.0957 9.76562 25.2441 6.20117 25.2441C3.00293 25.2441 0.488281 23.5596 0.512695 20.0684H4.1748C4.19922 21.46 5.05371 22.29 6.37207 22.29C7.76367 22.29 8.54492 21.3867 8.54492 19.6533V7.32422ZM15.0635 25L15.0391 22.3389L21.3867 16.5039C23.0469 14.917 23.9258 13.9404 23.9258 12.5488C23.9258 10.9863 22.7295 10.0098 21.1182 10.0098C19.458 10.0098 18.3838 11.0596 18.3838 12.7441H14.8926C14.8682 9.27734 17.4316 7.08008 21.167 7.08008C24.9512 7.08008 27.4658 9.22852 27.4658 12.3047C27.4658 14.3066 26.4893 15.9668 22.8516 19.2627L20.166 21.875V21.9727H27.71V25H15.0635ZM30.4199 25V7.32422H34.082V15.1611H34.3262L40.7471 7.32422H45.166L38.5742 15.2344L45.2393 25H40.8447L35.9375 17.7002L34.082 19.9463V25H30.4199Z" fill="black"/>
<path d="M57.0996 25V7.32422H58.833V16.6992H59.0039L67.5 7.32422H69.7705L62.251 15.4541L69.7217 25H67.5977L61.1768 16.6748L58.833 19.2871V25H57.0996ZM86.0303 16.1621C86.0303 21.7041 82.832 25.2441 78.3643 25.2441C73.8721 25.2441 70.6738 21.7041 70.6738 16.1621C70.6738 10.6201 73.8721 7.08008 78.3643 7.08008C82.832 7.08008 86.0303 10.6201 86.0303 16.1621ZM84.3457 16.1621C84.3457 11.4502 81.7822 8.71582 78.3643 8.71582C74.9463 8.71582 72.3828 11.4502 72.3828 16.1621C72.3828 20.8496 74.9219 23.6084 78.3643 23.6084C81.7822 23.6084 84.3457 20.874 84.3457 16.1621ZM89.4727 25V7.32422H95.2588C99.0674 7.32422 100.996 9.5459 100.996 12.6465C100.996 15.0146 99.873 16.8335 97.6758 17.5537L101.729 25H99.7266L95.8936 17.8955L95.2832 17.9199H91.2061V25H89.4727ZM91.2061 16.333H95.21C97.9688 16.333 99.2871 14.917 99.2871 12.6465C99.2871 10.376 97.9688 8.88672 95.1855 8.88672H91.2061V16.333ZM104.463 25V7.32422H114.814V8.88672H106.196V15.3809H114.277V16.9189H106.196V23.4375H114.985V25H104.463ZM118.696 25H116.865L123.286 7.32422H125.166L131.587 25H129.756L127.9 19.751H120.552L118.696 25ZM121.113 18.2129H127.363L124.287 9.57031H124.165L121.113 18.2129Z" fill="black"/>
</svg>
