<svg width="60" height="15" viewBox="0 0 60 15" fill="none" xmlns="http://www.w3.org/2000/svg">
<path d="M0.0613441 15V0.859375H8.63556V2.42188H1.81916V7.14844H8.18634V8.69141H1.81916V13.4375H8.73322V15H0.0613441ZM12.0535 0.859375L16.2137 12.7148H16.3699L20.5496 0.859375H22.4051L17.2293 15H15.3738L10.1981 0.859375H12.0535ZM24.3192 15V0.859375H32.8934V2.42188H26.077V7.14844H32.4442V8.69141H26.077V13.4375H32.991V15H24.3192ZM46.8973 0.859375V15H45.2176L37.5613 3.98438H37.4246V15H35.6668V0.859375H37.366L45.0223 11.8945H45.159V0.859375H46.8973ZM49.241 2.42188V0.859375H59.9051V2.42188H55.4715V15H53.6942V2.42188H49.241Z" fill="white"/>
</svg>
