<svg width="160" height="29" viewBox="0 0 160 29" fill="none" xmlns="http://www.w3.org/2000/svg">
<path d="M9.87333 7.48207H14.3448V21.9734C14.3448 26.0051 11.3588 28.5447 6.99237 28.5447C3.06107 28.5447 -0.0149503 26.5647 5.46618e-05 22.4612H4.50155C4.53156 24.1112 5.5819 25.0725 7.20244 25.0725C8.92801 25.0725 9.87333 24.0108 9.87333 21.9734V7.48207Z" fill="#999999"/>
<path d="M17.886 28.2577L17.856 25.1299L25.6586 18.2716C27.6842 16.4208 28.7796 15.2729 28.7796 13.6229C28.7796 11.7721 27.3241 10.6242 25.3285 10.6386C23.2878 10.6242 21.9523 11.8582 21.9673 13.8525H17.6759C17.6609 9.79207 20.812 7.19511 25.3885 7.19511C30.04 7.19511 33.131 9.73468 33.131 13.336C33.131 15.7034 31.9306 17.6403 27.4592 21.5142L24.1581 24.5847V24.6995H33.4311V28.2577H17.886Z" fill="#999999"/>
<path d="M36.7622 28.2577V7.48207H41.2637V16.6934H41.5638L49.4564 7.48207H54.8882L46.7856 16.7795L54.9783 28.2577H49.5765L43.5445 19.6777L41.2637 22.3177V28.2577H36.7622Z" fill="#999999"/>
<path d="M157.076 3.84868C157.024 3.51476 156.755 3.31233 156.386 3.31024C155.895 3.31233 155.57 3.67129 155.57 4.30781C155.57 4.95894 155.9 5.30329 156.382 5.30537C156.742 5.30329 157.013 5.11546 157.076 4.78781L157.739 4.79198C157.667 5.35129 157.176 5.8605 156.373 5.8605C155.529 5.8605 154.902 5.29076 154.902 4.30781C154.902 3.32068 155.539 2.75511 156.373 2.75511C157.102 2.75511 157.652 3.15372 157.739 3.84868H157.076Z" fill="#999999"/>
<path d="M159.167 4.21598C159.167 5.6913 157.916 6.88729 156.373 6.88729C154.83 6.88729 153.579 5.6913 153.579 4.21598C153.579 2.74066 154.83 1.54468 156.373 1.54468C157.916 1.54468 159.167 2.74066 159.167 4.21598Z" fill="#999999"/>
<path d="M68.4397 7.48207H70.5704V18.5012H70.7804L81.2239 7.48207H84.0148L74.7717 17.0377L83.9548 28.2577H81.3439L73.4513 18.4725L70.5704 21.5429V28.2577H68.4397V7.48207Z" fill="#999999"/>
<path d="M104.001 17.8699C104.001 20.0029 103.601 21.8777 102.801 23.4942C102.001 25.1108 100.885 26.359 99.4549 27.239C98.0245 28.1095 96.3989 28.5447 94.5783 28.5447C92.7477 28.5447 91.1172 28.1047 89.6867 27.2247C88.2562 26.3447 87.1358 25.1012 86.3256 23.4942C85.5253 21.8777 85.1252 20.0029 85.1252 17.8699C85.1252 15.7369 85.5253 13.8621 86.3256 12.2455C87.1358 10.629 88.2562 9.38555 89.6867 8.51511C91.1172 7.63511 92.7477 7.19511 94.5783 7.19511C96.3989 7.19511 98.0245 7.63511 99.4549 8.51511C100.885 9.38555 102.001 10.629 102.801 12.2455C103.601 13.8621 104.001 15.7369 104.001 17.8699ZM87.2259 17.8699C87.2259 19.6682 87.541 21.2273 88.1712 22.5473C88.8014 23.8673 89.6717 24.8764 90.7821 25.5747C91.8924 26.2729 93.1578 26.6221 94.5783 26.6221C95.9888 26.6221 97.2492 26.2729 98.3596 25.5747C99.4699 24.8764 100.34 23.8673 100.97 22.5473C101.611 21.2273 101.931 19.6682 101.931 17.8699C101.931 16.0716 101.611 14.5125 100.97 13.1925C100.34 11.8725 99.4699 10.8634 98.3596 10.1651C97.2492 9.46685 95.9888 9.11772 94.5783 9.11772C93.1678 9.11772 91.9024 9.46685 90.7821 10.1651C89.6717 10.8634 88.8014 11.8725 88.1712 13.1925C87.541 14.5029 87.2259 16.0621 87.2259 17.8699Z" fill="#999999"/>
<path d="M108.233 7.48207H115.345C116.866 7.48207 118.156 7.74511 119.216 8.2712C120.277 8.79729 121.072 9.53381 121.602 10.4808C122.142 11.4182 122.408 12.5038 122.398 13.7377C122.408 15.1534 122.062 16.3682 121.362 17.3821C120.672 18.3864 119.657 19.099 118.316 19.5199L123.298 28.2577H120.837L116.125 19.9073C115.805 19.9264 115.555 19.936 115.375 19.936H110.364V28.2577H108.233V7.48207ZM115.285 18.0708C116.946 18.0708 118.196 17.6929 119.036 16.9373C119.877 16.1721 120.297 15.1055 120.297 13.7377C120.297 12.3603 119.872 11.2795 119.021 10.4951C118.171 9.7012 116.916 9.30903 115.255 9.31859H110.364V18.0708H115.285Z" fill="#999999"/>
<path d="M126.659 7.48207H139.383V9.31859H128.79V16.9516H138.723V18.7595H128.79V26.4212H139.593V28.2577H126.659V7.48207Z" fill="#999999"/>
<path d="M141.904 28.2577L149.797 7.48207H152.107L160 28.2577H157.749L155.468 22.0882H146.436L144.155 28.2577H141.904ZM154.793 20.2803L151.027 10.1221H150.877L147.111 20.2803H154.793Z" fill="#999999"/>
<path d="M157.076 3.84868C157.024 3.51476 156.755 3.31233 156.386 3.31024C155.895 3.31233 155.57 3.67129 155.57 4.30781C155.57 4.95894 155.9 5.30329 156.382 5.30537C156.742 5.30329 157.013 5.11546 157.076 4.78781L157.739 4.79198C157.667 5.35129 157.176 5.8605 156.373 5.8605C155.529 5.8605 154.902 5.29076 154.902 4.30781C154.902 3.32068 155.539 2.75511 156.373 2.75511C157.102 2.75511 157.652 3.15372 157.739 3.84868H157.076Z" fill="#999999"/>
<path d="M159.167 4.21598C159.167 5.6913 157.916 6.88729 156.373 6.88729C154.83 6.88729 153.579 5.6913 153.579 4.21598C153.579 2.74066 154.83 1.54468 156.373 1.54468C157.916 1.54468 159.167 2.74066 159.167 4.21598Z" fill="#999999"/>
<path d="M156.475 5.59839C155.664 5.59839 155.176 5.03687 155.176 4.22632C155.176 3.41577 155.669 2.85913 156.475 2.85913C157.158 2.85913 157.622 3.25952 157.651 3.86499H156.973C156.929 3.60132 156.758 3.42065 156.484 3.42065C156.138 3.42065 155.908 3.71362 155.908 4.21655C155.908 4.72925 156.133 5.02222 156.484 5.02222C156.738 5.02222 156.929 4.86597 156.973 4.58276H157.651C157.617 5.18335 157.178 5.59839 156.475 5.59839Z" fill="white"/>
</svg>
